STARTFONT 2.3
FONT -FontForge-Permanent Marker-Book-R-Normal--14-140-72-72-P-81-ISO10646-1
SIZE 14 72 72  4
FONTBOUNDINGBOX 22 21 -4 -5
COMMENT "Generated by fontforge, http://fontforge.sourceforge.net"
COMMENT "Copyright (c) 2010 by Font Diner, Inc. All rights reserved."
STARTPROPERTIES 40
FOUNDRY "FontForge"
FAMILY_NAME "Permanent Marker"
WEIGHT_NAME "Book"
SLANT "R"
SETWIDTH_NAME "Normal"
ADD_STYLE_NAME ""
PIXEL_SIZE 14
POINT_SIZE 140
RESOLUTION_X 72
RESOLUTION_Y 72
SPACING "P"
AVERAGE_WIDTH 81
CHARSET_REGISTRY "ISO10646"
CHARSET_ENCODING "1"
FONTNAME_REGISTRY ""
CHARSET_COLLECTIONS "ISO10646-1"
BITS_PER_PIXEL 4
FONT_NAME "PermanentMarker-Regular"
FACE_NAME "Permanent Marker Regular"
COPYRIGHT "Copyright (c) 2010 by Font Diner, Inc. All rights reserved."
FONT_VERSION "1.001"
FONT_ASCENT 11
FONT_DESCENT 3
UNDERLINE_POSITION -1
UNDERLINE_THICKNESS 1
X_HEIGHT 8
CAP_HEIGHT 9
RAW_ASCENT 799
RAW_DESCENT 200
NORM_SPACE 5
RELATIVE_WEIGHT 40
RELATIVE_SETWIDTH 50
SUPERSCRIPT_X 0
SUPERSCRIPT_Y 6
SUPERSCRIPT_SIZE 8
SUBSCRIPT_X 0
SUBSCRIPT_Y 1
SUBSCRIPT_SIZE 8
AVG_LOWERCASE_WIDTH 78
AVG_UPPERCASE_WIDTH 95
ENDPROPERTIES
CHARS 230
STARTCHAR space
ENCODING 32
SWIDTH 370 0
DWIDTH 5 0
BBX 1 1 0 0
BITMAP
00
ENDCHAR
STARTCHAR exclam
ENCODING 33
SWIDTH 260 0
DWIDTH 4 0
BBX 4 12 0 -1
BITMAP
0021
00E9
04FB
06F9
0AF5
0DF3
0FE0
0A70
1000
AF50
BF40
2400
ENDCHAR
STARTCHAR quotedbl
ENCODING 34
SWIDTH 492 0
DWIDTH 7 0
BBX 7 8 1 3
BITMAP
03103200
0EE2BF40
4FE2FF20
8FA5FC00
BF69F800
DF2CF400
9C0AE000
12012000
ENDCHAR
STARTCHAR numbersign
ENCODING 35
SWIDTH 703 0
DWIDTH 10 0
BBX 11 10 0 0
BITMAP
0001D10B5000
0006F72FB000
024CFAAFC200
0DFFFFFFFD10
06CFA6FD3100
02BF89FC2000
8FFFFFFFD000
4DFB6FE30000
0DF39F800000
0BC07E300000
ENDCHAR
STARTCHAR dollar
ENCODING 36
SWIDTH 493 0
DWIDTH 7 0
BBX 8 12 0 -1
BITMAP
00001000
0000A700
0001FC50
049EFFF7
6FFC7664
6FFFA000
0247D600
0004EA00
09CFE200
0EFE1000
03F90000
00310000
ENDCHAR
STARTCHAR percent
ENCODING 37
SWIDTH 643 0
DWIDTH 9 0
BBX 10 10 0 0
BITMAP
006C0001A1
07FF301CE0
2FAEA0CF60
4FFF8BF500
0563BF5000
001BF56300
01CF5AF900
0CE47FBE10
4F90CFEF30
5D305B9400
ENDCHAR
STARTCHAR ampersand
ENCODING 38
SWIDTH 599 0
DWIDTH 8 0
BBX 9 8 0 0
BITMAP
0000640000
0122FD0000
3EFCFD0000
DFDFFFE800
8FFFFDC910
014FF30000
002FD00000
0005300000
ENDCHAR
STARTCHAR quotesingle
ENCODING 39
SWIDTH 265 0
DWIDTH 4 0
BBX 4 8 1 3
BITMAP
0310
0EE2
4FE1
8FA0
BF60
DF20
9C00
1200
ENDCHAR
STARTCHAR parenleft
ENCODING 40
SWIDTH 361 0
DWIDTH 5 0
BBX 7 15 0 -3
BITMAP
00000960
0001AF80
000BFF40
009FE400
04FF4000
0BFB0000
0EF30000
2FD00000
7FA00000
8F900000
8FA00000
6FD00000
2FF10000
07F10000
00600000
ENDCHAR
STARTCHAR parenright
ENCODING 41
SWIDTH 361 0
DWIDTH 5 0
BBX 7 15 -2 -3
BITMAP
0002A000
0001F900
0002FF20
0000DF60
0000BF70
0000BF70
0000CF50
0001FF10
0007FC00
001EF700
009FE100
1AFF5000
7FF60000
9F500000
44000000
ENDCHAR
STARTCHAR asterisk
ENCODING 42
SWIDTH 673 0
DWIDTH 9 0
BBX 9 8 1 3
BITMAP
0011001000
00CC19E100
01DFEF8000
57BFFFCA30
DFFFFFEC80
25CFFF6000
04FD4FA000
0494055000
ENDCHAR
STARTCHAR plus
ENCODING 43
SWIDTH 579 0
DWIDTH 8 0
BBX 8 8 0 0
BITMAP
00014000
000AE200
001FF200
58BFFB70
AFFFFFE4
26CF9100
00DF5000
00790000
ENDCHAR
STARTCHAR comma
ENCODING 44
SWIDTH 204 0
DWIDTH 3 0
BBX 4 5 -2 -3
BITMAP
04D5
09FA
1EF6
6FC0
0410
ENDCHAR
STARTCHAR hyphen
ENCODING 45
SWIDTH 609 0
DWIDTH 9 0
BBX 8 3 0 2
BITMAP
48AABA80
8FFFFFF6
16432100
ENDCHAR
STARTCHAR period
ENCODING 46
SWIDTH 228 0
DWIDTH 3 0
BBX 3 4 -1 -1
BITMAP
0100
2ED0
3FD0
0410
ENDCHAR
STARTCHAR slash
ENCODING 47
SWIDTH 401 0
DWIDTH 6 0
BBX 8 11 -1 -1
BITMAP
00000078
000005F9
00002EF4
0001CF50
000AF700
007FA000
06FC1000
2FE20000
6F700000
6F500000
02000000
ENDCHAR
STARTCHAR zero
ENCODING 48
SWIDTH 686 0
DWIDTH 10 0
BBX 9 12 0 -1
BITMAP
0000045000
00007FF400
0007FFF700
007FFFF900
04FFC6FE10
1DFD10AF70
6FF3004FC0
AFA0007FF0
CFA36BFFE0
9FFFFFFE40
1CFFFE9200
0034300000
ENDCHAR
STARTCHAR one
ENCODING 49
SWIDTH 322 0
DWIDTH 5 0
BBX 4 12 0 -1
BITMAP
0200
0BB1
0BF7
08FA
06FC
08FB
0CF9
2FF5
7FF1
AFA0
6F60
0100
ENDCHAR
STARTCHAR two
ENCODING 50
SWIDTH 650 0
DWIDTH 9 0
BBX 10 11 0 0
BITMAP
0002200000
0BFFFFB200
0FFFFFFC10
07A75CFF50
00008FFD10
001BFFD300
00CFFB1000
0AFF800141
1FFE9BEFFA
2FFFFFFFF9
09EFCA7410
ENDCHAR
STARTCHAR three
ENCODING 51
SWIDTH 561 0
DWIDTH 8 0
BBX 9 10 -1 0
BITMAP
038BDFFD10
0EFFFFFF90
2FFFFFFF60
035FFFC400
006FFFA100
002BFFFA00
000029FF30
02779DFF30
08FFFFF800
07DDB82000
ENDCHAR
STARTCHAR four
ENCODING 52
SWIDTH 582 0
DWIDTH 8 0
BBX 8 12 0 -1
BITMAP
00000500
01000F60
3E203FB0
4F804F90
1FD38FD9
0EFFFFFE
07FFFF93
0018F900
0009F500
000AF500
0006FB00
00005300
ENDCHAR
STARTCHAR five
ENCODING 53
SWIDTH 580 0
DWIDTH 8 0
BBX 10 10 0 0
BITMAP
003BA22320
07FFFFFFD0
2FFFFFFFE3
4FFFA74200
1EFFD30000
03AFFD1000
0001AF9000
2988DFD000
2FFFFF9000
06BDC70000
ENDCHAR
STARTCHAR six
ENCODING 54
SWIDTH 500 0
DWIDTH 7 0
BBX 8 12 -1 -1
BITMAP
00000200
0002DF20
000CFF70
006FF610
00CF7000
04FE1310
0AF9CFD1
0EFAFFF8
1FEDFFF8
1FFFFFB1
0AFFB600
00210000
ENDCHAR
STARTCHAR seven
ENCODING 55
SWIDTH 576 0
DWIDTH 8 0
BBX 9 11 0 0
BITMAP
0010000000
8FFFC80000
CFFFFF8000
5768CFE000
00001FE000
00359FE950
0DFFFFFF90
0EFFFD7500
016FF30000
008F900000
008E200000
ENDCHAR
STARTCHAR eight
ENCODING 56
SWIDTH 537 0
DWIDTH 8 0
BBX 9 12 0 -1
BITMAP
0002100000
02CFF69900
0CFFFDAF10
1FE3CEDF20
1FF69FFA00
09FFFF9000
07FFF40000
0CFBF70000
0DE4FB0000
0AFFFB0000
02DFD40000
0002000000
ENDCHAR
STARTCHAR nine
ENCODING 57
SWIDTH 529 0
DWIDTH 7 0
BBX 8 12 0 -1
BITMAP
00002100
004CFD20
06FFFFB0
2FFA6FF1
6FFFFFF7
4FFFFFD1
04648F60
00009F30
0000CE00
0000FC00
0001F800
00002100
ENDCHAR
STARTCHAR colon
ENCODING 58
SWIDTH 241 0
DWIDTH 3 0
BBX 4 7 -1 -1
BITMAP
06F7
07FB
0171
0100
2ED0
3FD0
0410
ENDCHAR
STARTCHAR semicolon
ENCODING 59
SWIDTH 245 0
DWIDTH 3 0
BBX 4 9 -1 -3
BITMAP
05F8
06FB
0071
0000
0C90
3FF1
8FC0
EF40
2400
ENDCHAR
STARTCHAR less
ENCODING 60
SWIDTH 625 0
DWIDTH 9 0
BBX 9 7 0 0
BITMAP
0000006930
00027DFF70
46BFFFB400
EFFE720000
4DFFD81000
005BFFD100
0000159200
ENDCHAR
STARTCHAR equal
ENCODING 61
SWIDTH 586 0
DWIDTH 8 0
BBX 8 6 0 1
BITMAP
00133420
3FFFFFF9
3CA98862
13567730
CFFFFFB0
78543200
ENDCHAR
STARTCHAR greater
ENCODING 62
SWIDTH 634 0
DWIDTH 9 0
BBX 9 7 -1 0
BITMAP
0295100000
01CFFC6000
0017DFFE50
00027EFFE0
04BFFFB630
7FFD610000
2960000000
ENDCHAR
STARTCHAR question
ENCODING 63
SWIDTH 556 0
DWIDTH 8 0
BBX 9 12 0 -1
BITMAP
0024320000
04EFFFEA30
0CFFFFFF90
03634AFF80
00007FFE20
001CFFB300
00CFD50000
01EA000000
0100000000
2FC0000000
2FE0000000
0410000000
ENDCHAR
STARTCHAR at
ENCODING 64
SWIDTH 732 0
DWIDTH 10 0
BBX 11 12 -1 -1
BITMAP
000000440000
000002FFC100
00001BFDF900
0003DF708F30
006EE46B7EB0
05FE5CFF69E0
0EF6DE7F39D0
1FB3FECFBE60
0E708DDBA400
08FC75457000
005DFFFFF600
000013443000
ENDCHAR
STARTCHAR A
ENCODING 65
SWIDTH 702 0
DWIDTH 10 0
BBX 11 11 -1 -1
BITMAP
000002EB2000
00006DFF5000
0007FFFF8000
001EFFDFB000
006FF67FE100
00DFE59FFF80
06FFEFFFFE40
0CFB8DACFB00
3FF4003DFA00
0DC1001ED200
000000010000
ENDCHAR
STARTCHAR B
ENCODING 66
SWIDTH 686 0
DWIDTH 10 0
BBX 11 12 -1 -1
BITMAP
000002320000
039CFFFFA100
3FFFFECFF900
1DFE919FF900
014DFDFFD100
001FFFFF5000
005FFEBCE400
00BFB003EE00
01FF63AFFF20
04FFEFFFE600
01EEFFC81000
002133000000
ENDCHAR
STARTCHAR C
ENCODING 67
SWIDTH 611 0
DWIDTH 9 0
BBX 9 10 0 0
BITMAP
000019F800
0018FFFF30
03DFFFF900
2EFFE61000
BFF9100000
FF80000000
DF20000000
9FDA766100
2DFFFFFB00
017BEFE600
ENDCHAR
STARTCHAR D
ENCODING 68
SWIDTH 588 0
DWIDTH 8 0
BBX 8 12 0 -1
BITMAP
01000000
1FA40000
1EFFD300
2FBBFF60
0FB02CF5
0EC001DD
1FC005FF
5FA3BFF9
AFFFFF90
BFFFC400
7FA30000
01000000
ENDCHAR
STARTCHAR E
ENCODING 69
SWIDTH 626 0
DWIDTH 9 0
BBX 10 11 0 -1
BITMAP
00159BDFB1
0BFFFFFFC0
0EFFEB7400
09FD443000
0AFFFFE400
2FFFFFC200
AFE2220000
DFB567B900
BFFFFFFF20
4DFFEDA400
0011000000
ENDCHAR
STARTCHAR F
ENCODING 70
SWIDTH 575 0
DWIDTH 8 0
BBX 11 12 -1 -1
BITMAP
000000013300
00015AEFFF70
01BFFFFFEDA0
02FFFB410000
005FF4000000
036FE3561000
2FFFFFFF8000
1EFFFEC91000
07FC20000000
0AF600000000
05F400000000
001000000000
ENDCHAR
STARTCHAR G
ENCODING 71
SWIDTH 789 0
DWIDTH 11 0
BBX 12 11 0 0
BITMAP
000000110000
000004DD3000
0001AFFFA000
002DFFFA2000
02DFFB300000
1DFF802CC400
8FF8001FFF90
EFA0001BFFF8
CF979CFFFFE3
7FFFFFFFD820
19EEDA720000
ENDCHAR
STARTCHAR H
ENCODING 72
SWIDTH 695 0
DWIDTH 10 0
BBX 11 12 -1 -1
BITMAP
000000001100
00280000B800
008F4000DE20
00BFB002FF60
00CFA002FF70
00EF7007FF50
03FFABEFFF20
07FFFFFFFC00
0CFFFA6FF600
1FFE203FF500
0AF7000AB100
002000000000
ENDCHAR
STARTCHAR I
ENCODING 73
SWIDTH 515 0
DWIDTH 7 0
BBX 10 12 -1 -1
BITMAP
0000112210
005DFFFFF9
005FFFFFDA
00055FE000
00006FB000
0000BF6000
0002FF2000
0008FC0000
002EFA3000
6FFFFFE200
3FECB97000
0200000000
ENDCHAR
STARTCHAR J
ENCODING 74
SWIDTH 668 0
DWIDTH 9 0
BBX 13 10 -1 0
BITMAP
0048BCDEEED700
01FFFFFFFFFF20
00AD969FE45400
0000008FB00000
000000BF800000
000001FF400000
000006FE000000
1A746EF9000000
3FFFFFE2000000
08ADEB20000000
ENDCHAR
STARTCHAR K
ENCODING 75
SWIDTH 776 0
DWIDTH 11 0
BBX 12 12 0 -1
BITMAP
000100000000
004FA0004400
00CFF11AFF50
02FFA4DFFE30
07FFAFFFA200
0DFFFFF60000
3FFFFF500000
7FFFFFD52210
BFFD3CFFFFD1
AFF3019EFFC0
5F6000014400
010000000000
ENDCHAR
STARTCHAR L
ENCODING 76
SWIDTH 632 0
DWIDTH 9 0
BBX 9 12 0 -1
BITMAP
0010000000
00AE600000
00EFA00000
05FF500000
0AFE000000
1FF8000000
6FF3000000
AFD0000000
DFD8BCC600
BFFFFFFF70
3EFEA88930
0120000000
ENDCHAR
STARTCHAR M
ENCODING 77
SWIDTH 973 0
DWIDTH 14 0
BBX 14 12 0 -1
BITMAP
00002000000000
0009F700002D60
004FFF4001CFF4
00CFFF602CFFF5
05FFFF97EFFFF3
0BFFFFFFFFEFF2
3FFBEFFFE78FE0
9FF43BC820CFC0
DFD1000000EF90
DF60000000EF30
8E100000007800
12000000000000
ENDCHAR
STARTCHAR N
ENCODING 78
SWIDTH 684 0
DWIDTH 10 0
BBX 11 11 -1 0
BITMAP
000000000100
0000D8005D30
0006FF50BFC0
000DFF60EF90
005FFF22FF40
00DFFF06FF10
05FFFF1CFE00
0CFFFFCFFB00
1FFE5FFFF500
0DF70AFFA000
05D200880000
ENDCHAR
STARTCHAR O
ENCODING 79
SWIDTH 744 0
DWIDTH 10 0
BBX 10 12 0 -1
BITMAP
0000004100
00001BFB10
0002CFFF30
003EFFFF40
03EFF99FB0
0DFE400DF4
6FF40006F9
BF900019FD
DFA569EFFB
8FFFFFFFC2
0AFFFDA400
0001100000
ENDCHAR
STARTCHAR P
ENCODING 80
SWIDTH 639 0
DWIDTH 9 0
BBX 10 12 0 -1
BITMAP
0000133000
0008FFFE40
007FFFFFD0
00DFC8AFF3
09FE25AFF5
4FFFFFFFE2
6FFFFFFB20
2FFD962000
2FF3000000
5FF2000000
3FC0000000
0200000000
ENDCHAR
STARTCHAR Q
ENCODING 81
SWIDTH 744 0
DWIDTH 10 0
BBX 10 12 0 -1
BITMAP
0000022000
00000EFA10
00007FFF80
0019FFFFF2
02CFFB28FA
1DFF8101EF
AFF74FC4FF
EF800BFFFD
EF359EFFE3
CFFFFFFFD0
2CFFD94EF3
00200005C2
ENDCHAR
STARTCHAR R
ENCODING 82
SWIDTH 646 0
DWIDTH 9 0
BBX 9 12 0 -1
BITMAP
0000120000
0002DF6000
000CFFF500
05BFEDFD00
0DFE34FF30
1FFCAEFF20
5FFFFFE500
7FFFC50000
AFFFE72000
BF9DFFFEA0
7E217DFFF0
0000003750
ENDCHAR
STARTCHAR S
ENCODING 83
SWIDTH 576 0
DWIDTH 8 0
BBX 10 12 0 -1
BITMAP
0000002310
0026AEFFD1
19EFFFFFF7
AFFF955551
CFFFD50000
4BDFFF2000
00005DB000
00004EE000
024AFF9000
3FFFFB1000
2FFC600000
0210000000
ENDCHAR
STARTCHAR T
ENCODING 84
SWIDTH 607 0
DWIDTH 9 0
BBX 11 12 0 -1
BITMAP
000000013300
6789DDFFFF70
EFFFFFFFFFA0
7DCCFF731000
0008FD000000
001FF7000000
006FE1000000
00BF90000000
00EF20000000
00EF10000000
008F80000000
000310000000
ENDCHAR
STARTCHAR U
ENCODING 85
SWIDTH 695 0
DWIDTH 10 0
BBX 11 10 0 0
BITMAP
00000000B600
0A700001FB00
0EF20004FF10
1FF60009FD00
3FF3002EFA00
4FF102DFF200
4FF57EFF7000
2EFFFFF70000
0BFFFF900000
02BDA3000000
ENDCHAR
STARTCHAR V
ENCODING 86
SWIDTH 583 0
DWIDTH 8 0
BBX 10 12 0 -1
BITMAP
0000000110
0D40001CE1
1FE100BFF2
0FF407FFA0
0EF62FFC10
0EF8CFE200
0CFEFF5000
0AFFFB0000
07FFF20000
03FF700000
00BE200000
0001000000
ENDCHAR
STARTCHAR W
ENCODING 87
SWIDTH 994 0
DWIDTH 14 0
BBX 15 11 0 0
BITMAP
0000000000000100
0088000000006D10
03FF400AC100DF70
09FF105FF604FF70
0EFB01DFF40AFE10
2FF608FFF12FF900
6FF23FFFD09FF200
9FE3EFFFE7FFB000
9FEFFFACFFFF3000
3FFFF804FFF70000
06DB40008F800000
ENDCHAR
STARTCHAR X
ENCODING 88
SWIDTH 623 0
DWIDTH 9 0
BBX 11 11 -1 -1
BITMAP
00BA10005B10
00DFC119FF70
009FFBDFFD20
001CFFFF8000
0007FFE50000
005FFFF30000
04FFEEFC0000
0DFE34FF8000
2FF400BFC000
1EA0003E6000
031000000000
ENDCHAR
STARTCHAR Y
ENCODING 89
SWIDTH 493 0
DWIDTH 7 0
BBX 9 12 0 -1
BITMAP
0200001200
2F9003EE30
1FF22EFF30
0EF5BFF500
0CFEFF7000
07FFFB0000
01EFF30000
03FF800000
0BFE100000
3FF6000000
3FD0000000
0330000000
ENDCHAR
STARTCHAR Z
ENCODING 90
SWIDTH 664 0
DWIDTH 9 0
BBX 11 11 -1 -1
BITMAP
000DFFEEED30
000CFFFFFFA0
0002659FFF40
000007FFD300
0003CFFD2000
006FFFA10000
09FFE6001000
1FFE238CF500
2FFFFFFFF600
09FFFED82000
005851000000
ENDCHAR
STARTCHAR bracketleft
ENCODING 91
SWIDTH 387 0
DWIDTH 5 0
BBX 11 16 -1 -3
BITMAP
000147899710
0003FFFFFFC0
0004FD877520
0007F8000000
000BF5000000
000FF1000000
004FC0000000
008F90000000
00CF50000000
01FF20000000
06FC00000000
0AF700000000
0EF422000000
5FFFFFB00000
3FFEDB800000
042000000000
ENDCHAR
STARTCHAR backslash
ENCODING 92
SWIDTH 352 0
DWIDTH 5 0
BBX 4 12 0 -1
BITMAP
0300
2F60
1FC0
0DE0
09F1
07F3
05F6
02F9
00FB
00ED
00CE
0023
ENDCHAR
STARTCHAR bracketright
ENCODING 93
SWIDTH 403 0
DWIDTH 6 0
BBX 10 16 -4 -3
BITMAP
000269AA92
0008FFFFFB
0003B76BF9
0000000AF6
0000000EF2
0000003FD0
0000007FA0
000000AF60
000000EF20
000004FD00
000009F900
00000DF500
00014FE100
9DEFFFA000
BFFDCB3000
2300000000
ENDCHAR
STARTCHAR asciicircum
ENCODING 94
SWIDTH 518 0
DWIDTH 7 0
BBX 7 9 0 2
BITMAP
00004100
0003F900
000BFD00
006FFF10
01EFCF30
0BF88F50
8FC06F50
EE201E60
53000310
ENDCHAR
STARTCHAR underscore
ENCODING 95
SWIDTH 708 0
DWIDTH 10 0
BBX 12 3 -2 -1
BITMAP
2779AAAAA850
3FFFFFFFFFFA
046543333210
ENDCHAR
STARTCHAR grave
ENCODING 96
SWIDTH 754 0
DWIDTH 11 0
BBX 5 5 4 6
BITMAP
130000
BE5000
9FF500
07FF10
004A00
ENDCHAR
STARTCHAR a
ENCODING 97
SWIDTH 581 0
DWIDTH 8 0
BBX 10 10 -1 -1
BITMAP
0000031000
00004FE000
000BFFF200
005FFEF500
00BFA6F910
03FF9BFFD1
0AFCFFFF50
2FE144CF40
1E9002FC00
0100001000
ENDCHAR
STARTCHAR b
ENCODING 98
SWIDTH 573 0
DWIDTH 8 0
BBX 9 10 -1 -1
BITMAP
0003575000
1AFFFFFB00
3FFD68FF20
058FAFFB00
007FFFF200
00BFB8AD10
01FE02AF70
06FDBFFF40
05FFFE9200
0033400000
ENDCHAR
STARTCHAR c
ENCODING 99
SWIDTH 513 0
DWIDTH 7 0
BBX 7 10 0 -1
BITMAP
00000400
0005DF90
02CFFF90
2EFFA300
BFD30000
FE100000
DD300000
6FFFED40
06CFFF50
00001000
ENDCHAR
STARTCHAR d
ENCODING 100
SWIDTH 497 0
DWIDTH 7 0
BBX 7 10 0 -1
BITMAP
03000000
2FC70000
3FEFC200
2F44CE10
1F601D90
4F507FA0
8F9DFE20
BFFFB200
8FA30000
01000000
ENDCHAR
STARTCHAR e
ENCODING 101
SWIDTH 521 0
DWIDTH 7 0
BBX 8 10 0 -1
BITMAP
00001340
049DFFF8
1FFFFC82
0DF84100
0DFFFD20
5FEDD810
CF500310
CFDDFFB0
6FFFFC50
01310000
ENDCHAR
STARTCHAR f
ENCODING 102
SWIDTH 455 0
DWIDTH 6 0
BBX 10 10 -1 -1
BITMAP
0000035730
0049EFFFE2
05FFFA7540
01BF900000
04AF756000
3FFFFFF300
0CFC963000
0BF1000000
09D0000000
0010000000
ENDCHAR
STARTCHAR g
ENCODING 103
SWIDTH 652 0
DWIDTH 9 0
BBX 10 10 0 -1
BITMAP
0000032000
00019FE200
003DFFC200
04EFD50000
2EFB13D810
BFB002FFD3
EE1147EFF9
BFFFFFFF91
3DFFC95100
0010000000
ENDCHAR
STARTCHAR h
ENCODING 104
SWIDTH 582 0
DWIDTH 8 0
BBX 9 10 -1 -1
BITMAP
0000000500
0096000F40
00DE103FC0
00FF104FD0
03FD019FB0
06FECFFF80
0BFFFDFF30
1EFC33FE00
0DF301DA00
0120000000
ENDCHAR
STARTCHAR i
ENCODING 105
SWIDTH 320 0
DWIDTH 4 0
BBX 4 10 0 -1
BITMAP
0031
02F5
06F9
09F8
0DF3
1FF0
2FD0
1FD0
0CC0
0110
ENDCHAR
STARTCHAR j
ENCODING 106
SWIDTH 534 0
DWIDTH 7 0
BBX 11 10 -1 -1
BITMAP
000012333100
02CEFFFFFD10
02FECCFDAA20
002107F70000
00000AF30000
00001EE00000
02007F900000
3FDCFF300000
1BDFD5000000
000100000000
ENDCHAR
STARTCHAR k
ENCODING 107
SWIDTH 645 0
DWIDTH 9 0
BBX 10 10 0 -1
BITMAP
0022000000
00DF304B30
05FF29FFA0
0AFBCFF910
1FFFFE4000
6FFFF50000
9FFDEE9870
CFD14DFFF3
7E30005750
0200000000
ENDCHAR
STARTCHAR l
ENCODING 108
SWIDTH 533 0
DWIDTH 7 0
BBX 8 10 0 -1
BITMAP
00510000
02FE0000
07FB0000
0CF60000
3FE10000
8F900000
CF524300
CFFFFFC0
6FFDBBB1
02200000
ENDCHAR
STARTCHAR m
ENCODING 109
SWIDTH 814 0
DWIDTH 11 0
BBX 12 10 0 -1
BITMAP
000510000200
005FD1002EA0
01EFF503DFF3
07FFF86EFFF1
0EFFFFFFEFE0
6FE9FFF95FB0
CFA056208F90
EF3000009F50
AB0000005B00
110000000000
ENDCHAR
STARTCHAR n
ENCODING 110
SWIDTH 564 0
DWIDTH 8 0
BBX 10 9 -1 0
BITMAP
0002100300
000AE30CD1
002FF81FF2
009FF44FB0
02FFF28F80
08FFF4EF60
1EFDFEFF20
1FF3AFF900
09C0099100
ENDCHAR
STARTCHAR o
ENCODING 111
SWIDTH 628 0
DWIDTH 9 0
BBX 9 10 0 -1
BITMAP
0000171000
0002DFB000
004EFFC000
04FFCBF400
2EF801EB00
8F90009F20
DF1016EF40
BFDDFFFC10
3DFFFC6000
0022000000
ENDCHAR
STARTCHAR p
ENCODING 112
SWIDTH 524 0
DWIDTH 7 0
BBX 8 10 0 -1
BITMAP
00036610
008FFFE2
03FFDEF8
0BF539FB
6FFEFFF7
8FFFFC50
5FC41000
7F900000
7F500000
03000000
ENDCHAR
STARTCHAR q
ENCODING 113
SWIDTH 625 0
DWIDTH 9 0
BBX 9 10 0 -1
BITMAP
0000450000
0000DFC000
001BFFF600
03DFD5DE10
3EFB305F50
CFA1ECAF50
FD119FFE10
EDCFFFF600
6FFFB7FA00
0120008700
ENDCHAR
STARTCHAR r
ENCODING 114
SWIDTH 541 0
DWIDTH 8 0
BBX 8 10 0 -1
BITMAP
00015000
001DFA00
02BFFF60
0EF94FC0
3FF9DFC0
7FFFFA20
9FFE2000
CFDFEA72
9D18EFF8
01000472
ENDCHAR
STARTCHAR s
ENCODING 115
SWIDTH 463 0
DWIDTH 7 0
BBX 8 10 0 -1
BITMAP
00003661
038EFFFA
8FFEBAAA
CFFC4000
4BDFF200
0001BB00
0007FB00
3AEFE300
4FFB2000
03100000
ENDCHAR
STARTCHAR t
ENCODING 116
SWIDTH 479 0
DWIDTH 7 0
BBX 9 10 0 -1
BITMAP
0001346730
CDEFFFFFE0
BFFFFB8750
122FE00000
008F800000
00DF200000
03FA000000
04F5000000
01EB000000
0022000000
ENDCHAR
STARTCHAR u
ENCODING 117
SWIDTH 584 0
DWIDTH 8 0
BBX 9 9 0 0
BITMAP
0000000300
0400002F20
0E80005F60
1FE000AF60
4FC003FF20
4FB03DFA00
4FEAFFB100
0DFFFD1000
06EE810000
ENDCHAR
STARTCHAR v
ENCODING 118
SWIDTH 485 0
DWIDTH 7 0
BBX 8 10 0 -1
BITMAP
03000032
1F5004FB
0FC02EF8
0FF0AFC0
0EF6FE10
0CFFF500
0AFFB000
07FE2000
02EA0000
00100000
ENDCHAR
STARTCHAR w
ENCODING 119
SWIDTH 825 0
DWIDTH 12 0
BBX 13 10 0 -1
BITMAP
00100000001200
03F50052009D00
0AF803FC01EF30
0EF30CFC06FC00
4FD06FF90DF600
7F92EFF76FE000
AF9DFEFCFF7000
7FFFD2AFFD1000
1AE9102DD20000
00000001000000
ENDCHAR
STARTCHAR x
ENCODING 120
SWIDTH 506 0
DWIDTH 7 0
BBX 9 10 -1 -1
BITMAP
0020000000
01FA003DA0
01EF97FFB0
006FFFF800
001EFE4000
01BFFF4000
0AFE9FD100
2FE20CF600
2F6004F400
0410001000
ENDCHAR
STARTCHAR y
ENCODING 121
SWIDTH 400 0
DWIDTH 6 0
BBX 8 10 0 -1
BITMAP
14000430
3F806FF1
1FC3FF80
0EFDF900
09FFD000
03FF4000
09FA0000
2FF20000
5F900000
05100000
ENDCHAR
STARTCHAR z
ENCODING 122
SWIDTH 547 0
DWIDTH 8 0
BBX 9 10 -1 -1
BITMAP
0013433310
004FFFFFC0
000ABBFFD0
00003DFC20
0008FFB100
02CFF80000
0DFD314500
1FFBBFFE30
0CFFFEA300
0177300000
ENDCHAR
STARTCHAR braceleft
ENCODING 123
SWIDTH 448 0
DWIDTH 6 0
BBX 12 16 0 -3
BITMAP
000046899830
0000EFFFFFE2
0000FF877630
0003FC000000
0007F9000000
004DF5000000
5CFFC1000000
AFF700000000
2DFF60000000
01EF60000000
02FF10000000
07FB00000000
0BF712100000
1FFFFFD20000
0EFEDCA10000
033000000000
ENDCHAR
STARTCHAR bar
ENCODING 124
SWIDTH 332 0
DWIDTH 5 0
BBX 5 12 0 -1
BITMAP
000200
000D50
004F90
009F40
00DD00
04F800
09F300
0DE000
5F9000
CF2000
EC0000
110000
ENDCHAR
STARTCHAR braceright
ENCODING 125
SWIDTH 481 0
DWIDTH 7 0
BBX 11 16 -4 -3
BITMAP
000379AA8100
000BFFFFF900
0005A76CF700
0000000CF300
0000001FF000
0000006FB000
000000AFC200
0000005EFE20
0000003CFF60
000006FFC610
00000BF90000
00001FF30000
00016FD00000
BDFFFF800000
DFEDCA200000
230000000000
ENDCHAR
STARTCHAR asciitilde
ENCODING 126
SWIDTH 581 0
DWIDTH 8 0
BBX 8 3 0 3
BITMAP
04871065
4FFFDBF5
CC1AFF80
ENDCHAR
STARTCHAR uni00A0
ENCODING 160
SWIDTH 370 0
DWIDTH 5 0
BBX 1 1 0 0
BITMAP
00
ENDCHAR
STARTCHAR exclamdown
ENCODING 161
SWIDTH 260 0
DWIDTH 4 0
BBX 5 12 -1 -1
BITMAP
000500
009F60
00AF50
000100
01B600
05FA00
08F800
0BF400
0EF100
1FD000
1E9000
030000
ENDCHAR
STARTCHAR cent
ENCODING 162
SWIDTH 488 0
DWIDTH 7 0
BBX 7 12 0 -1
BITMAP
00001000
0002E100
0007F900
005EFF70
0AFFC710
8FD50000
CE100000
AE643200
2DFFFF20
07FB8500
09F30000
01300000
ENDCHAR
STARTCHAR sterling
ENCODING 163
SWIDTH 586 0
DWIDTH 8 0
BBX 10 9 -1 1
BITMAP
0000001000
00006EFDA0
0004FFCDF1
000AF60010
08DFFFE500
08FFDB9400
008F603400
1CEFEEFF10
0AFFEDB810
ENDCHAR
STARTCHAR currency
ENCODING 164
SWIDTH 509 0
DWIDTH 7 0
BBX 7 8 0 0
BITMAP
06134230
0EEFFED0
0BFFFD40
3FE6FB00
7FBAFE00
9FFFF900
CB75EA00
63003200
ENDCHAR
STARTCHAR yen
ENCODING 165
SWIDTH 563 0
DWIDTH 8 0
BBX 8 10 0 -1
BITMAP
039101A7
04F80CFD
02FC8FE2
00EFFF40
69EFFE90
AFFFFFD4
15EF6000
06FC0000
04F40000
00100000
ENDCHAR
STARTCHAR brokenbar
ENCODING 166
SWIDTH 301 0
DWIDTH 4 0
BBX 6 12 -1 -1
BITMAP
000020
0002E2
0007F5
000CF1
002FA0
001930
001000
02F700
08F600
1EE100
2F9000
020000
ENDCHAR
STARTCHAR section
ENCODING 167
SWIDTH 630 0
DWIDTH 9 0
BBX 9 13 0 -2
BITMAP
0037BEFD30
09FFFFFF80
0CFF742400
07FFE82000
07FFFFE500
4FFDAAFE10
5FE559FF30
0BFFFFF900
007EFFE200
00019FF900
8EDEFFF800
8FFFFB7100
0453100000
ENDCHAR
STARTCHAR dieresis
ENCODING 168
SWIDTH 754 0
DWIDTH 11 0
BBX 7 3 3 8
BITMAP
02002100
BF41FE10
BE31CB00
ENDCHAR
STARTCHAR copyright
ENCODING 169
SWIDTH 614 0
DWIDTH 9 0
BBX 9 10 0 1
BITMAP
0000010000
003BEE8100
03EB428B00
0DC3AF7F40
5F5EB40B70
9B88000C80
AB7D943F40
5E1697EA00
08C8AF9000
0027730000
ENDCHAR
STARTCHAR ordfeminine
ENCODING 170
SWIDTH 454 0
DWIDTH 6 0
BBX 7 7 0 2
BITMAP
002D9000
05FFF000
0DFEF400
5FFDFF30
CFCEFB00
CC07F500
00001000
ENDCHAR
STARTCHAR guillemotleft
ENCODING 171
SWIDTH 566 0
DWIDTH 8 0
BBX 9 7 -1 -1
BITMAP
0003D00B60
006ED2CF50
0BFC8EF600
1FE19F6000
06FD2DF500
005D61BC00
0001200200
ENDCHAR
STARTCHAR logicalnot
ENCODING 172
SWIDTH 698 0
DWIDTH 10 0
BBX 9 5 0 0
BITMAP
68AABBA810
CFFFFFFFB0
3643228F70
000000EF20
000000DA00
ENDCHAR
STARTCHAR sfthyphen
ENCODING 173
SWIDTH 608 0
DWIDTH 9 0
BBX 8 3 0 2
BITMAP
48AABA80
9FFFFFF6
16432100
ENDCHAR
STARTCHAR registered
ENCODING 174
SWIDTH 624 0
DWIDTH 9 0
BBX 9 10 0 1
BITMAP
0000010000
002ADE9100
02DD665D10
0BD2BF7D60
3F5BBAA990
7D1FFB39A0
8D5EE74E60
3F655CFC00
06D89EB100
0026740000
ENDCHAR
STARTCHAR macron
ENCODING 175
SWIDTH 754 0
DWIDTH 11 0
BBX 6 3 3 8
BITMAP
034540
4FFFF7
3A8871
ENDCHAR
STARTCHAR degree
ENCODING 176
SWIDTH 284 0
DWIDTH 4 0
BBX 5 5 1 7
BITMAP
003200
05E900
4FDE10
BECF40
7ED800
ENDCHAR
STARTCHAR plusminus
ENCODING 177
SWIDTH 559 0
DWIDTH 8 0
BBX 9 11 -1 -1
BITMAP
0000081000
00005F8000
0000AF8000
03BDFFFD50
03FFFFDC70
0026FE0000
0006FA0000
0001710000
3ACDEEC400
3FFFEED800
0320000000
ENDCHAR
STARTCHAR twosuperior
ENCODING 178
SWIDTH 386 0
DWIDTH 5 0
BBX 5 6 1 4
BITMAP
BEE800
ADFF40
3DF900
EFECC0
DFFC80
010000
ENDCHAR
STARTCHAR threesuperior
ENCODING 179
SWIDTH 366 0
DWIDTH 5 0
BBX 5 6 1 4
BITMAP
9CED10
EFFF30
0EFD10
19EF70
3FFC20
011000
ENDCHAR
STARTCHAR acute
ENCODING 180
SWIDTH 754 0
DWIDTH 11 0
BBX 5 5 4 6
BITMAP
001300
03DE10
2EFC10
CFA000
860000
ENDCHAR
STARTCHAR mu
ENCODING 181
SWIDTH 569 0
DWIDTH 8 0
BBX 9 10 -1 -2
BITMAP
0000000410
0071000B80
00E9000EC0
02FB005F90
05F902DF30
09FB8EF800
0CFFFF9000
0FEED60000
2F90000000
0620000000
ENDCHAR
STARTCHAR paragraph
ENCODING 182
SWIDTH 729 0
DWIDTH 10 0
BBX 11 12 0 -1
BITMAP
000000247600
0038DFFFFFB0
09FFFFFEFE90
2FFD8FE5F900
1FF44FA8F500
08FEDF8BF300
006DFFFFF100
0001FEDFE600
0003FC8F7000
0005F88F8000
0008F44FC000
000030042000
ENDCHAR
STARTCHAR periodcentered
ENCODING 183
SWIDTH 226 0
DWIDTH 3 0
BBX 3 3 0 4
BITMAP
0310
4FC0
4E80
ENDCHAR
STARTCHAR cedilla
ENCODING 184
SWIDTH 754 0
DWIDTH 11 0
BBX 6 6 3 -5
BITMAP
008800
05F900
03DFB1
0239F7
2FFFD2
024200
ENDCHAR
STARTCHAR onesuperior
ENCODING 185
SWIDTH 206 0
DWIDTH 3 0
BBX 4 6 0 4
BITMAP
0990
09F1
09F1
0ED0
1F70
0100
ENDCHAR
STARTCHAR ordmasculine
ENCODING 186
SWIDTH 445 0
DWIDTH 6 0
BBX 6 8 0 2
BITMAP
000110
003DD1
04EFF3
3EFDF9
AF93FE
CFEFFE
6FFFB3
023100
ENDCHAR
STARTCHAR guillemotright
ENCODING 187
SWIDTH 595 0
DWIDTH 8 0
BBX 9 7 -1 -1
BITMAP
09811C4000
04FC2BF700
005FB1BF50
01AFC4EF60
1CF85FD400
4F50AC1000
0200210000
ENDCHAR
STARTCHAR onequarter
ENCODING 188
SWIDTH 705 0
DWIDTH 10 0
BBX 10 12 0 -1
BITMAP
0000000200
0A8000AA00
0AF007FA00
0BF03FE200
1FB2DE3000
2F6CF50520
019FAC2D90
07FB2FBFD2
3FD10DFFD2
8F6001DD00
7F4000CE00
0200001200
ENDCHAR
STARTCHAR onehalf
ENCODING 189
SWIDTH 750 0
DWIDTH 11 0
BBX 10 12 0 -1
BITMAP
0000000200
0A8000AA00
0AF007FA00
0BF03FE200
1FB2DE3000
2F6CF50000
019F9BFE70
07FB09CFE0
3FD104EE50
8F600EFEE9
7F400CFDA4
0200000000
ENDCHAR
STARTCHAR threequarters
ENCODING 190
SWIDTH 818 0
DWIDTH 11 0
BBX 10 12 1 -1
BITMAP
0121000010
BFFF3006D0
BFFE205FE0
2EFA04FE40
9CFE3EE300
BDB7EE2060
003EE894F3
03ED29FBF8
2EE208FFE7
8F6000AF20
AE20009F10
1100001300
ENDCHAR
STARTCHAR questiondown
ENCODING 191
SWIDTH 556 0
DWIDTH 8 0
BBX 8 12 -1 -1
BITMAP
00000011
000002EC
000002FF
00000023
00000990
0005CFB0
02AFFC10
3EFF8000
BFF71040
CFFFFFF8
7DFFFFF3
00246620
ENDCHAR
STARTCHAR Agrave
ENCODING 192
SWIDTH 702 0
DWIDTH 10 0
BBX 11 16 -1 -1
BITMAP
000001300000
00000BE50000
000009FF5000
0000007FF100
00000004A000
000002EB2000
00006DFF5000
0007FFFF8000
001EFFDFB000
006FF67FE100
00DFE59FFF80
06FFEFFFFE40
0CFB8DACFB00
3FF4003DFA00
0DC1001ED200
000000010000
ENDCHAR
STARTCHAR Aacute
ENCODING 193
SWIDTH 702 0
DWIDTH 10 0
BBX 11 17 -1 -1
BITMAP
000000014000
0000001CF200
000001DFD200
00000AFB1000
000007700000
000000000000
000002EB2000
00006DFF5000
0007FFFF8000
001EFFDFB000
006FF67FE100
00DFE59FFF80
06FFEFFFFE40
0CFB8DACFB00
3FF4003DFA00
0DC1001ED200
000000010000
ENDCHAR
STARTCHAR Acircumflex
ENCODING 194
SWIDTH 702 0
DWIDTH 10 0
BBX 11 15 -1 -1
BITMAP
0000008A2000
00001BFFD200
0000AF95FD00
000048105700
000002EB2000
00006DFF5000
0007FFFF8000
001EFFDFB000
006FF67FE100
00DFE59FFF80
06FFEFFFFE40
0CFB8DACFB00
3FF4003DFA00
0DC1001ED200
000000010000
ENDCHAR
STARTCHAR Atilde
ENCODING 195
SWIDTH 702 0
DWIDTH 10 0
BBX 12 15 -1 -1
BITMAP
000001661261
00001DFFCDE1
00007F7CFF50
000011002100
000002EB2000
00006DFF5000
0007FFFF8000
001EFFDFB000
006FF67FE100
00DFE59FFF80
06FFEFFFFE40
0CFB8DACFB00
3FF4003DFA00
0DC1001ED200
000000010000
ENDCHAR
STARTCHAR Adieresis
ENCODING 196
SWIDTH 702 0
DWIDTH 10 0
BBX 11 15 -1 -1
BITMAP
000002002100
00009F60EE20
00009E40BC10
000000000000
000002EB2000
00006DFF5000
0007FFFF8000
001EFFDFB000
006FF67FE100
00DFE59FFF80
06FFEFFFFE40
0CFB8DACFB00
3FF4003DFA00
0DC1001ED200
000000010000
ENDCHAR
STARTCHAR Aring
ENCODING 197
SWIDTH 702 0
DWIDTH 10 0
BBX 11 15 -1 -1
BITMAP
000000024000
0000003ED000
000002ECF400
000007FCF800
000004FF9100
00006DFF5000
0007FFFF8000
001EFFDFB000
006FF67FE100
00DFE59FFF80
06FFEFFFFE40
0CFB8DACFB00
3FF4003DFA00
0DC1001ED200
000000010000
ENDCHAR
STARTCHAR AE
ENCODING 198
SWIDTH 1153 0
DWIDTH 16 0
BBX 18 11 -1 -1
BITMAP
0000008E70037ADFE3
000049FFB6EFFFFFE4
0003FFFFB8FFFD8510
000DFFDFC3FF744000
007FF67FE5FFFFF900
02EFC5AFFFFFFFE600
0BFFFFFFFFF6220000
4FF5DC9FFFE5579B20
CFA001AFFFFFFFFF80
9E3000BE7BFFFEC700
000000010011000000
ENDCHAR
STARTCHAR Ccedilla
ENCODING 199
SWIDTH 611 0
DWIDTH 9 0
BBX 9 15 0 -5
BITMAP
000019F800
0018FFFF30
03DFFFF900
2EFFE61000
BFF9100000
FF80000000
DF20000000
9FDA766100
2DFFFFFB00
01AFEFE600
00ED000000
01DFD20000
0005EB0000
0CFFF80000
0265200000
ENDCHAR
STARTCHAR Egrave
ENCODING 200
SWIDTH 626 0
DWIDTH 9 0
BBX 10 17 0 -1
BITMAP
0000400000
0006F90000
0005FF9000
00003EF500
0000029300
0000000000
00159BDFB1
0BFFFFFFC0
0EFFEB7400
09FD443000
0AFFFFE400
2FFFFFC200
AFE2220000
DFB567B900
BFFFFFFF20
4DFFEDA400
0011000000
ENDCHAR
STARTCHAR Eacute
ENCODING 201
SWIDTH 626 0
DWIDTH 9 0
BBX 10 16 0 -1
BITMAP
0000001300
000003DE10
00002EFC10
0000CFA000
0000860000
00159BDFB1
0BFFFFFFC0
0EFFEB7400
09FD443000
0AFFFFE400
2FFFFFC200
AFE2220000
DFB567B900
BFFFFFFF20
4DFFEDA400
0011000000
ENDCHAR
STARTCHAR Ecircumflex
ENCODING 202
SWIDTH 626 0
DWIDTH 9 0
BBX 10 16 0 -1
BITMAP
00003B7000
0004EFF900
001FE4BF70
0008301920
0000000000
00159BDFB1
0BFFFFFFC0
0EFFEB7400
09FD443000
0AFFFFE400
2FFFFFC200
AFE2220000
DFB567B900
BFFFFFFF20
4DFFEDA400
0011000000
ENDCHAR
STARTCHAR Edieresis
ENCODING 203
SWIDTH 626 0
DWIDTH 9 0
BBX 10 15 0 -1
BITMAP
0001200200
001ED15FB0
001EC13D70
0000000000
00159BDFB1
0BFFFFFFC0
0EFFEB7400
09FD443000
0AFFFFE400
2FFFFFC200
AFE2220000
DFB567B900
BFFFFFFF20
4DFFEDA400
0011000000
ENDCHAR
STARTCHAR Igrave
ENCODING 204
SWIDTH 515 0
DWIDTH 7 0
BBX 10 17 -1 -1
BITMAP
0000220000
0000DE4000
0000BFE400
000008FE00
0000005A00
0000112210
005DFFFFF9
005FFFFFDA
00055FE000
00006FB000
0000BF6000
0002FF2000
0008FC0000
002EFA3000
6FFFFFE200
3FECB97000
0200000000
ENDCHAR
STARTCHAR Iacute
ENCODING 205
SWIDTH 515 0
DWIDTH 7 0
BBX 10 17 -1 -1
BITMAP
0000000031
00000006FA
0000006FF9
000002FF60
000001A400
0000112210
005DFFFFF9
005FFFFFDA
00055FE000
00006FB000
0000BF6000
0002FF2000
0008FC0000
002EFA3000
6FFFFFE200
3FECB97000
0200000000
ENDCHAR
STARTCHAR Icircumflex
ENCODING 206
SWIDTH 515 0
DWIDTH 7 0
BBX 10 16 -1 -1
BITMAP
000002A800
00002DFFB1
0000EF59F9
0000750084
0000112210
005DFFFFF9
005FFFFFDA
00055FE000
00006FB000
0000BF6000
0002FF2000
0008FC0000
002EFA3000
6FFFFFE200
3FECB97000
0200000000
ENDCHAR
STARTCHAR Idieresis
ENCODING 207
SWIDTH 515 0
DWIDTH 7 0
BBX 11 15 -1 -1
BITMAP
000002002100
0000BF41FE10
0000BE31CB00
000011221000
005DFFFFF900
005FFFFFDA00
00055FE00000
00006FB00000
0000BF600000
0002FF200000
0008FC000000
002EFA300000
6FFFFFE20000
3FECB9700000
020000000000
ENDCHAR
STARTCHAR Eth
ENCODING 208
SWIDTH 656 0
DWIDTH 9 0
BBX 10 12 -1 -1
BITMAP
0001000000
001EA40000
001FFFC300
003FBCFF50
005FB23CF4
2FFFFE11DC
1FFFE915FE
037F94CFF9
00BFFFFF90
00CFFFB300
007F930000
0001000000
ENDCHAR
STARTCHAR Ntilde
ENCODING 209
SWIDTH 684 0
DWIDTH 10 0
BBX 12 14 -1 0
BITMAP
000000572152
000009FFEBF4
00002FA9FF90
000001002200
0000D8005D30
0006FF50BFC0
000DFF60EF90
005FFF22FF40
00DFFF06FF10
05FFFF1CFE00
0CFFFFCFFB00
1FFE5FFFF500
0DF70AFFA000
05D200880000
ENDCHAR
STARTCHAR Ograve
ENCODING 210
SWIDTH 744 0
DWIDTH 10 0
BBX 10 16 0 -1
BITMAP
0000014000
000009F700
000008FF70
0000005FF3
00000044A1
00001BFB10
0002CFFF30
003EFFFF40
03EFF99FB0
0DFE400DF4
6FF40006F9
BF900019FD
DFA569EFFB
8FFFFFFFC2
0AFFFDA400
0001100000
ENDCHAR
STARTCHAR Oacute
ENCODING 211
SWIDTH 744 0
DWIDTH 10 0
BBX 10 16 0 -1
BITMAP
0000001400
000001CF20
00001DFD20
0000AFB100
0000775100
00001BFB10
0002CFFF30
003EFFFF40
03EFF99FB0
0DFE400DF4
6FF40006F9
BF900019FD
DFA569EFFB
8FFFFFFFC2
0AFFFDA400
0001100000
ENDCHAR
STARTCHAR Ocircumflex
ENCODING 212
SWIDTH 744 0
DWIDTH 10 0
BBX 10 16 0 -1
BITMAP
000002B800
00003DFFA0
0000EF5AF9
0000750083
0000004100
00001BFB10
0002CFFF30
003EFFFF40
03EFF99FB0
0DFE400DF4
6FF40006F9
BF900019FD
DFA569EFFB
8FFFFFFFC2
0AFFFDA400
0001100000
ENDCHAR
STARTCHAR Otilde
ENCODING 213
SWIDTH 744 0
DWIDTH 10 0
BBX 11 15 0 -1
BITMAP
000005721520
00009FFEBF40
0002FA9FF900
000010432000
00001BFB1000
0002CFFF3000
003EFFFF4000
03EFF99FB000
0DFE400DF400
6FF40006F900
BF900019FD00
DFA569EFFB00
8FFFFFFFC200
0AFFFDA40000
000110000000
ENDCHAR
STARTCHAR Odieresis
ENCODING 214
SWIDTH 744 0
DWIDTH 10 0
BBX 10 15 0 -1
BITMAP
0000120020
0001ED16FA
0001EC14D7
0000004100
00001BFB10
0002CFFF30
003EFFFF40
03EFF99FB0
0DFE400DF4
6FF40006F9
BF900019FD
DFA569EFFB
8FFFFFFFC2
0AFFFDA400
0001100000
ENDCHAR
STARTCHAR multiply
ENCODING 215
SWIDTH 490 0
DWIDTH 7 0
BBX 7 8 0 0
BITMAP
02000000
1F903D90
0CFAFE60
02FFC200
09FF6000
7FBCE200
EC14F800
B3008300
ENDCHAR
STARTCHAR Oslash
ENCODING 216
SWIDTH 744 0
DWIDTH 10 0
BBX 10 13 0 -2
BITMAP
0000004102
00001BFBBB
0002CFFFFC
003EFFFFF7
03EFFBFFD0
0DFE5DFFF4
6FF4AFD7F9
BF98FE39FD
DFCFFDEFFB
8FFFFFFFC2
0CFFFDA400
0AFA100000
04B3000000
ENDCHAR
STARTCHAR Ugrave
ENCODING 217
SWIDTH 695 0
DWIDTH 10 0
BBX 11 15 0 0
BITMAP
000310000000
001ED3000000
001CFE200000
0000AFC00000
000006800000
00000000B600
0A700001FB00
0EF20004FF10
1FF60009FD00
3FF3002EFA00
4FF102DFF200
4FF57EFF7000
2EFFFFF70000
0BFFFF900000
02BDA3000000
ENDCHAR
STARTCHAR Uacute
ENCODING 218
SWIDTH 695 0
DWIDTH 10 0
BBX 11 15 0 0
BITMAP
000000031000
0000006FA000
000006FF9000
00002FF60000
00001A400000
00000000B600
0A700001FB00
0EF20004FF10
1FF60009FD00
3FF3002EFA00
4FF102DFF200
4FF57EFF7000
2EFFFFF70000
0BFFFF900000
02BDA3000000
ENDCHAR
STARTCHAR Ucircumflex
ENCODING 219
SWIDTH 695 0
DWIDTH 10 0
BBX 11 15 0 0
BITMAP
00002A800000
0002DFFB1000
000EF59F9000
000750084000
000000000000
00000000B600
0A700001FB00
0EF20004FF10
1FF60009FD00
3FF3002EFA00
4FF102DFF200
4FF57EFF7000
2EFFFFF70000
0BFFFF900000
02BDA3000000
ENDCHAR
STARTCHAR Udieresis
ENCODING 220
SWIDTH 695 0
DWIDTH 10 0
BBX 11 14 0 0
BITMAP
000020021000
000DE33FD000
000DD22D9000
000000000000
00000000B600
0A700001FB00
0EF20004FF10
1FF60009FD00
3FF3002EFA00
4FF102DFF200
4FF57EFF7000
2EFFFFF70000
0BFFFF900000
02BDA3000000
ENDCHAR
STARTCHAR Yacute
ENCODING 221
SWIDTH 493 0
DWIDTH 7 0
BBX 9 17 0 -1
BITMAP
0000002200
000004ED00
00004EFB00
0000EF8000
0000950000
0200001200
2F9003EE30
1FF22EFF30
0EF5BFF500
0CFEFF7000
07FFFB0000
01EFF30000
03FF800000
0BFE100000
3FF6000000
3FD0000000
0330000000
ENDCHAR
STARTCHAR Thorn
ENCODING 222
SWIDTH 680 0
DWIDTH 10 0
BBX 10 12 0 -1
BITMAP
0010000000
02E4000000
07FB431000
0CFFFFFD60
0EFDABDFF4
4FF5009FF8
7FF25CFFE3
8FFEFFFA20
9FFFD72000
5FE3000000
1EB0000000
0100000000
ENDCHAR
STARTCHAR germandbls
ENCODING 223
SWIDTH 931 0
DWIDTH 13 0
BBX 15 10 0 -1
BITMAP
0000366100146400
038EFFFA6BFFFF30
8FFEBABFFFDAAA50
CFFC404FFF810000
4BDFF219CEFA0000
0001BB00005F4000
0007FB0002BF4000
3AEFE308CFFA0000
4FFB200BFE700000
0310000130000000
ENDCHAR
STARTCHAR agrave
ENCODING 224
SWIDTH 581 0
DWIDTH 8 0
BBX 10 15 -1 -1
BITMAP
0000130000
0000BF6000
00009FF500
000006FF20
0000004A10
0000031000
00004FE000
000BFFF200
005FFEF500
00BFA6F910
03FF9BFFD1
0AFCFFFF50
2FE144CF40
1E9002FC00
0100001000
ENDCHAR
STARTCHAR aacute
ENCODING 225
SWIDTH 581 0
DWIDTH 8 0
BBX 10 15 -1 -1
BITMAP
0000001300
000002DE10
00002DFC10
0000BFA100
0000870000
0000031000
00004FE000
000BFFF200
005FFEF500
00BFA6F910
03FF9BFFD1
0AFCFFFF50
2FE144CF40
1E9002FC00
0100001000
ENDCHAR
STARTCHAR acircumflex
ENCODING 226
SWIDTH 581 0
DWIDTH 8 0
BBX 10 14 -1 -1
BITMAP
000019A100
0001CFFC10
000BF77FC0
0005700750
0000031000
00004FE000
000BFFF200
005FFEF500
00BFA6F910
03FF9BFFD1
0AFCFFFF50
2FE144CF40
1E9002FC00
0100001000
ENDCHAR
STARTCHAR atilde
ENCODING 227
SWIDTH 581 0
DWIDTH 8 0
BBX 10 13 -1 -1
BITMAP
0000374044
0004FFFAF9
000CD6FFC1
0001032200
00004FE000
000BFFF200
005FFEF500
00BFA6F910
03FF9BFFD1
0AFCFFFF50
2FE144CF40
1E9002FC00
0100001000
ENDCHAR
STARTCHAR adieresis
ENCODING 228
SWIDTH 581 0
DWIDTH 8 0
BBX 10 14 -1 -1
BITMAP
0000200120
0006F80CF4
0006F708D2
0000000000
0000031000
00004FE000
000BFFF200
005FFEF500
00BFA6F910
03FF9BFFD1
0AFCFFFF50
2FE144CF40
1E9002FC00
0100001000
ENDCHAR
STARTCHAR aring
ENCODING 229
SWIDTH 581 0
DWIDTH 8 0
BBX 10 13 -1 -1
BITMAP
0000003400
000005EC00
00003FCF30
00009FCF60
00007FF700
000BFFF200
005FFEF500
00BFA6F910
03FF9BFFD1
0AFCFFFF50
2FE144CF40
1E9002FC00
0100001000
ENDCHAR
STARTCHAR ae
ENCODING 230
SWIDTH 948 0
DWIDTH 13 0
BBX 15 10 -1 -1
BITMAP
0000022000013400
00002DF459DFFF80
0009FFF7FFFFB810
004FFEF6DF831000
00DF88F8DFFFD200
07FE8CFFFEDD8000
2FEDFFFFF5003100
AF6348FFFDDFFB00
BD000CE9FFFFC400
1000010012100000
ENDCHAR
STARTCHAR ccedilla
ENCODING 231
SWIDTH 513 0
DWIDTH 7 0
BBX 7 13 0 -4
BITMAP
00000400
0005DF90
02CFFF90
2EFFA300
BFD30000
FE100000
DD300000
6FFFED40
06DFFF50
01E91000
01CFA000
0349F400
0AFE9000
ENDCHAR
STARTCHAR egrave
ENCODING 232
SWIDTH 521 0
DWIDTH 7 0
BBX 8 15 0 -1
BITMAP
00410000
02FD2000
02DFD100
001BFA00
00007700
00001340
049DFFF8
1FFFFC82
0DF84100
0DFFFD20
5FEDD810
CF500310
CFDDFFB0
6FFFFC50
01310000
ENDCHAR
STARTCHAR eacute
ENCODING 233
SWIDTH 521 0
DWIDTH 7 0
BBX 8 15 0 -1
BITMAP
00000220
00004ED0
0003EFB0
000EF900
00095000
00001340
049DFFF8
1FFFFC82
0DF84100
0DFFFD20
5FEDD810
CF500310
CFDDFFB0
6FFFFC50
01310000
ENDCHAR
STARTCHAR ecircumflex
ENCODING 234
SWIDTH 521 0
DWIDTH 7 0
BBX 8 14 0 -1
BITMAP
00008B20
001BFFD2
009F95FE
00380057
00001340
049DFFF8
1FFFFC82
0DF84100
0DFFFD20
5FEDD810
CF500310
CFDDFFB0
6FFFFC50
01310000
ENDCHAR
STARTCHAR edieresis
ENCODING 235
SWIDTH 521 0
DWIDTH 7 0
BBX 9 14 0 -1
BITMAP
0002001200
006F80CF40
006F708D20
0000000000
0000134000
049DFFF800
1FFFFC8200
0DF8410000
0DFFFD2000
5FEDD81000
CF50031000
CFDDFFB000
6FFFFC5000
0131000000
ENDCHAR
STARTCHAR igrave
ENCODING 236
SWIDTH 320 0
DWIDTH 4 0
BBX 6 15 0 -1
BITMAP
013000
0AF600
08FF60
006FF2
0003A1
003100
02F500
06F900
09F800
0DF300
1FF000
2FD000
1FD000
0CC000
011000
ENDCHAR
STARTCHAR iacute
ENCODING 237
SWIDTH 320 0
DWIDTH 4 0
BBX 8 15 0 -1
BITMAP
00000140
00001CF2
0001CFD2
0009FC10
00068000
00310000
02F50000
06F90000
09F80000
0DF30000
1FF00000
2FD00000
1FD00000
0CC00000
01100000
ENDCHAR
STARTCHAR icircumflex
ENCODING 238
SWIDTH 320 0
DWIDTH 4 0
BBX 7 14 0 -1
BITMAP
005B4000
06FFF600
4FD3DF30
1A102A00
00310000
02F50000
06F90000
09F80000
0DF30000
1FF00000
2FD00000
1FD00000
0CC00000
01100000
ENDCHAR
STARTCHAR idieresis
ENCODING 239
SWIDTH 320 0
DWIDTH 4 0
BBX 7 14 0 -1
BITMAP
02001200
6F90BF50
6F708D30
00000000
00310000
02F50000
06F90000
09F80000
0DF30000
1FF00000
2FD00000
1FD00000
0CC00000
01100000
ENDCHAR
STARTCHAR eth
ENCODING 240
SWIDTH 541 0
DWIDTH 8 0
BBX 9 10 -1 -1
BITMAP
0032000000
009FB40000
00AEEF9000
01AD26EA00
4FFFE14F20
2DEE62BF40
00EE9FFA00
02FFFE7000
01ED710000
0010000000
ENDCHAR
STARTCHAR ntilde
ENCODING 241
SWIDTH 564 0
DWIDTH 8 0
BBX 11 13 -1 0
BITMAP
000003740440
00005FFFAF90
0000DD6FFC10
000010012000
000210030000
000AE30CD100
002FF81FF200
009FF44FB000
02FFF28F8000
08FFF4EF6000
1EFDFEFF2000
1FF3AFF90000
09C009910000
ENDCHAR
STARTCHAR ograve
ENCODING 242
SWIDTH 628 0
DWIDTH 9 0
BBX 9 15 0 -1
BITMAP
0000410000
0002FC1000
0002DFD100
00001CFA00
0000008700
0000171000
0002DFB000
004EFFC000
04FFCBF400
2EF801EB00
8F90009F20
DF1016EF40
BFDDFFFC10
3DFFFC6000
0022000000
ENDCHAR
STARTCHAR oacute
ENCODING 243
SWIDTH 628 0
DWIDTH 9 0
BBX 9 15 0 -1
BITMAP
0000004000
00001BF400
0000BFE400
0007FD2000
0005910000
0000171000
0002DFB000
004EFFC000
04FFCBF400
2EF801EB00
8F90009F20
DF1016EF40
BFDDFFFC10
3DFFFC6000
0022000000
ENDCHAR
STARTCHAR ocircumflex
ENCODING 244
SWIDTH 628 0
DWIDTH 9 0
BBX 9 14 0 -1
BITMAP
00002A8000
0002DFFB10
000EF59F90
0007500840
0000171000
0002DFB000
004EFFC000
04FFCBF400
2EF801EB00
8F90009F20
DF1016EF40
BFDDFFFC10
3DFFFC6000
0022000000
ENDCHAR
STARTCHAR otilde
ENCODING 245
SWIDTH 628 0
DWIDTH 9 0
BBX 10 13 0 -1
BITMAP
0000374044
0005FFFAF9
000DD6FFC1
0001172200
0002DFB000
004EFFC000
04FFCBF400
2EF801EB00
8F90009F20
DF1016EF40
BFDDFFFC10
3DFFFC6000
0022000000
ENDCHAR
STARTCHAR odieresis
ENCODING 246
SWIDTH 628 0
DWIDTH 9 0
BBX 10 14 0 -1
BITMAP
0000200210
000BF41FE1
000BE31CB0
0000000000
0000171000
0002DFB000
004EFFC000
04FFCBF400
2EF801EB00
8F90009F20
DF1016EF40
BFDDFFFC10
3DFFFC6000
0022000000
ENDCHAR
STARTCHAR divide
ENCODING 247
SWIDTH 559 0
DWIDTH 8 0
BBX 8 10 0 -1
BITMAP
00001000
000AE200
000DF400
00034000
9BDEFE91
BFFEDCA2
13320000
01EF3000
00DD1000
00110000
ENDCHAR
STARTCHAR oslash
ENCODING 248
SWIDTH 632 0
DWIDTH 9 0
BBX 9 11 0 -2
BITMAP
0000171410
0002DFDF40
004EFFFF20
04FFDFF800
1EF9AFFC00
8FA7FB8F20
CF7FD6DF50
CFFFFFFD10
3EFFFC7100
0DF4100000
0570000000
ENDCHAR
STARTCHAR ugrave
ENCODING 249
SWIDTH 584 0
DWIDTH 8 0
BBX 9 14 0 0
BITMAP
0004000000
004FB10000
003EFB0000
0002DF8000
0000185000
0000000300
0400002F20
0E80005F60
1FE000AF60
4FC003FF20
4FB03DFA00
4FEAFFB100
0DFFFD1000
06EE810000
ENDCHAR
STARTCHAR uacute
ENCODING 250
SWIDTH 584 0
DWIDTH 8 0
BBX 9 13 0 0
BITMAP
0000002200
000004ED00
00004EFB00
0000EF8000
0000950300
0400002F20
0E80005F60
1FE000AF60
4FC003FF20
4FB03DFA00
4FEAFFB100
0DFFFD1000
06EE810000
ENDCHAR
STARTCHAR ucircumflex
ENCODING 251
SWIDTH 584 0
DWIDTH 8 0
BBX 9 13 0 0
BITMAP
00007B3000
0009FFE400
007FB4EF10
0029103900
0000000300
0400002F20
0E80005F60
1FE000AF60
4FC003FF20
4FB03DFA00
4FEAFFB100
0DFFFD1000
06EE810000
ENDCHAR
STARTCHAR udieresis
ENCODING 252
SWIDTH 584 0
DWIDTH 8 0
BBX 9 13 0 0
BITMAP
0002001200
006F80CF40
006F708D20
0000000000
0000000300
0400002F20
0E80005F60
1FE000AF60
4FC003FF20
4FB03DFA00
4FEAFFB100
0DFFFD1000
06EE810000
ENDCHAR
STARTCHAR yacute
ENCODING 253
SWIDTH 400 0
DWIDTH 6 0
BBX 8 15 0 -1
BITMAP
00000040
000009F6
00009FF5
0005FE30
0003A200
14000430
3F806FF1
1FC3FF80
0EFDF900
09FFD000
03FF4000
09FA0000
2FF20000
5F900000
05100000
ENDCHAR
STARTCHAR thorn
ENCODING 254
SWIDTH 579 0
DWIDTH 8 0
BBX 9 10 0 -1
BITMAP
0160000000
09E2000000
0DFFFDA200
1FFAACFD00
5FD01AFF20
8FC8EFF600
9FFFE82000
7FB4000000
2F60000000
0100000000
ENDCHAR
STARTCHAR ydieresis
ENCODING 255
SWIDTH 400 0
DWIDTH 6 0
BBX 8 14 0 -1
BITMAP
00120020
00EE15FB
01EC13D7
00000000
14000430
3F806FF1
1FC3FF80
0EFDF900
09FFD000
03FF4000
09FA0000
2FF20000
5F900000
05100000
ENDCHAR
STARTCHAR dotlessi
ENCODING 305
SWIDTH 320 0
DWIDTH 4 0
BBX 4 10 0 -1
BITMAP
0031
02F5
06F9
09F8
0DF3
1FF0
2FD0
1FD0
0CC0
0110
ENDCHAR
STARTCHAR Lslash
ENCODING 321
SWIDTH 632 0
DWIDTH 9 0
BBX 11 12 -2 -1
BITMAP
000010000000
0000AE600000
0000EFA00000
0005FF500000
000BFFD60000
18EFFFC40000
3FFFF4000000
04CFD0000000
00DFD8BCC600
00BFFFFFFF70
003EFEA88930
000120000000
ENDCHAR
STARTCHAR lslash
ENCODING 322
SWIDTH 533 0
DWIDTH 7 0
BBX 10 10 -2 -1
BITMAP
0000510000
0002FE0000
0007FB0000
000CFC5000
16CFFF9000
4FFFA10000
04DF524300
00CFFFFFC0
006FFDBBB1
0002200000
ENDCHAR
STARTCHAR OE
ENCODING 338
SWIDTH 1212 0
DWIDTH 17 0
BBX 18 12 0 -1
BITMAP
000000410000000000
00001BFB10148BDFC2
0002CFFF38FFFFFFE2
003EFFFF4BFFFC7410
03EFF99FB6FF544000
0DFE400DFBFFFFF600
6FF40006FFFFFFD400
BF900019FFF4220000
DFA569EFFFD567AA10
8FFFFFFFEFFFFFFF50
0AFFFDA42CFFFEB600
000110000011000000
ENDCHAR
STARTCHAR oe
ENCODING 339
SWIDTH 1010 0
DWIDTH 14 0
BBX 15 10 0 -1
BITMAP
0000181000013400
0002DFC059DFFF60
004FFFD4FFFFB710
04FFCBF5EF631000
2EF801ECEFFFC100
8F90009FFEDC7000
DF1016EFF3003000
BFEDFFFFFDEFF900
3DFFFB69FFFFB300
0022000012100000
ENDCHAR
STARTCHAR Scaron
ENCODING 352
SWIDTH 576 0
DWIDTH 8 0
BBX 10 16 0 -1
BITMAP
0007500830
000EF59F90
0002DFFB10
00002B8000
0000002310
0026AEFFD1
19EFFFFFF7
AFFF955551
CFFFD50000
4BDFFF2000
00005DB000
00004EE000
024AFF9000
3FFFFB1000
2FFC600000
0210000000
ENDCHAR
STARTCHAR scaron
ENCODING 353
SWIDTH 463 0
DWIDTH 7 0
BBX 8 15 0 -1
BITMAP
01910290
05FC3DF3
007FFF60
0005C400
00000000
00003661
038EFFFA
8FFEBAAA
CFFC4000
4BDFF200
0001BB00
0007FB00
3AEFE300
4FFB2000
03100000
ENDCHAR
STARTCHAR Ydieresis
ENCODING 376
SWIDTH 493 0
DWIDTH 7 0
BBX 9 16 0 -1
BITMAP
0002001200
006F80CF40
006F708D20
0000000000
0200001200
2F9003EE30
1FF22EFF30
0EF5BFF500
0CFEFF7000
07FFFB0000
01EFF30000
03FF800000
0BFE100000
3FF6000000
3FD0000000
0330000000
ENDCHAR
STARTCHAR Zcaron
ENCODING 381
SWIDTH 664 0
DWIDTH 9 0
BBX 11 16 -1 -1
BITMAP
000004800560
00000AF85FD0
000001BFFD20
00000009A200
000000000000
000DFFEEED30
000CFFFFFFA0
0002659FFF40
000007FFD300
0003CFFD2000
006FFFA10000
09FFE6001000
1FFE238CF500
2FFFFFFFF600
09FFFED82000
005851000000
ENDCHAR
STARTCHAR zcaron
ENCODING 382
SWIDTH 547 0
DWIDTH 8 0
BBX 10 15 -1 -1
BITMAP
0000750083
0000EF59F9
00002DFFB1
000002B800
0000000000
0013433310
004FFFFFC0
000ABBFFD0
00003DFC20
0008FFB100
02CFF80000
0DFD314500
1FFBBFFE30
0CFFFEA300
0177300000
ENDCHAR
STARTCHAR circumflex
ENCODING 710
SWIDTH 754 0
DWIDTH 11 0
BBX 6 4 3 7
BITMAP
008A20
1BFFD2
AF95FD
480057
ENDCHAR
STARTCHAR caron
ENCODING 711
SWIDTH 754 0
DWIDTH 11 0
BBX 6 4 3 7
BITMAP
480057
AF95FD
1BFFD2
009A20
ENDCHAR
STARTCHAR breve
ENCODING 728
SWIDTH 754 0
DWIDTH 11 0
BBX 6 4 3 7
BITMAP
370056
AFA8FE
1BFFD3
002300
ENDCHAR
STARTCHAR dotaccent
ENCODING 729
SWIDTH 754 0
DWIDTH 11 0
BBX 3 3 5 8
BITMAP
1200
EE20
EC10
ENDCHAR
STARTCHAR ring
ENCODING 730
SWIDTH 754 0
DWIDTH 11 0
BBX 5 5 4 7
BITMAP
004100
07F700
6FDC00
DECF20
9FD700
ENDCHAR
STARTCHAR ogonek
ENCODING 731
SWIDTH 754 0
DWIDTH 11 0
BBX 6 5 4 -4
BITMAP
330000
B80000
BB1000
5FFED3
049BA2
ENDCHAR
STARTCHAR tilde
ENCODING 732
SWIDTH 754 0
DWIDTH 11 0
BBX 8 4 2 7
BITMAP
00572052
09FFEBF4
2FA9FF90
01002200
ENDCHAR
STARTCHAR hungarumlaut
ENCODING 733
SWIDTH 754 0
DWIDTH 11 0
BBX 8 5 2 6
BITMAP
00140032
01CF35EC
1CFD7FFA
9FC2EF80
6800A500
ENDCHAR
STARTCHAR endash
ENCODING 8211
SWIDTH 588 0
DWIDTH 8 0
BBX 8 3 0 2
BITMAP
58ABBA70
AFFFFFE4
26422100
ENDCHAR
STARTCHAR emdash
ENCODING 8212
SWIDTH 878 0
DWIDTH 12 0
BBX 12 3 0 2
BITMAP
69ACCCCCBA50
8FFFFFFFFFD4
044210000000
ENDCHAR
STARTCHAR quoteleft
ENCODING 8216
SWIDTH 203 0
DWIDTH 3 0
BBX 4 5 1 6
BITMAP
0661
3FF4
8FC0
BF40
4910
ENDCHAR
STARTCHAR quoteright
ENCODING 8217
SWIDTH 199 0
DWIDTH 3 0
BBX 4 5 1 6
BITMAP
0640
0EF3
4FF1
CF90
6910
ENDCHAR
STARTCHAR quotesinglbase
ENCODING 8218
SWIDTH 204 0
DWIDTH 3 0
BBX 4 5 -2 -3
BITMAP
04C4
09FA
0EF6
6FC0
0510
ENDCHAR
STARTCHAR quotedblleft
ENCODING 8220
SWIDTH 410 0
DWIDTH 6 0
BBX 7 5 1 6
BITMAP
07507600
4FF6FF30
8FAAFA00
BF4CF300
6D159000
ENDCHAR
STARTCHAR quotedblright
ENCODING 8221
SWIDTH 425 0
DWIDTH 6 0
BBX 7 5 1 6
BITMAP
06404600
0EF3BF60
4FF4FF20
CF9CF800
69179000
ENDCHAR
STARTCHAR quotedblbase
ENCODING 8222
SWIDTH 430 0
DWIDTH 6 0
BBX 7 5 -2 -3
BITMAP
04C41D70
09FA6FD0
0EF6DF70
6FC7FC00
05105100
ENDCHAR
STARTCHAR bullet
ENCODING 8226
SWIDTH 299 0
DWIDTH 4 0
BBX 4 4 0 2
BITMAP
1A60
7FF4
6FF2
1530
ENDCHAR
STARTCHAR ellipsis
ENCODING 8230
SWIDTH 768 0
DWIDTH 11 0
BBX 11 4 -1 -1
BITMAP
010001000100
2ED05FA08F70
3FD06F909F60
041005001400
ENDCHAR
STARTCHAR perthousand
ENCODING 8240
SWIDTH 889 0
DWIDTH 12 0
BBX 13 10 0 0
BITMAP
006C0001A10000
07FF301CE00000
2FAEA0CF600000
4FFF8BF5000000
0563BF50000000
001BF563003600
01CF5AF905FE00
0CE47FBE3FBF50
4F90CFEFAFEF80
5D305B942AA600
ENDCHAR
STARTCHAR guilsinglleft
ENCODING 8249
SWIDTH 322 0
DWIDTH 5 0
BBX 5 7 -1 -1
BITMAP
0003D0
006ED0
0BFC20
1FE100
06FD00
005D60
000120
ENDCHAR
STARTCHAR guilsinglright
ENCODING 8250
SWIDTH 341 0
DWIDTH 5 0
BBX 5 7 -1 -1
BITMAP
098100
04FC20
005FB0
01AFC0
1CF800
4F5000
020000
ENDCHAR
STARTCHAR fraction
ENCODING 8260
SWIDTH 541 0
DWIDTH 8 0
BBX 8 12 0 -1
BITMAP
00000011
000001D6
00000BF5
00008FB0
0004FD10
002EE200
01CF5000
0BF70000
7FA00000
CF200000
BE100000
11000000
ENDCHAR
STARTCHAR Euro
ENCODING 8364
SWIDTH 565 0
DWIDTH 8 0
BBX 9 9 -1 0
BITMAP
0000003400
000019FF40
0005EFFE30
004FFD5000
04DFE96000
2FFFFFF600
06DE963100
005FFFFE10
00039CC900
ENDCHAR
STARTCHAR Delta
ENCODING 8710
SWIDTH 403 0
DWIDTH 6 0
BBX 9 10 -1 -1
BITMAP
0013566300
00BFFFFF50
005AEE5400
0001FB0000
0005F70000
000BF20000
002FC00000
39DFFA0000
4FFDC90000
0200000000
ENDCHAR
STARTCHAR minus
ENCODING 8722
SWIDTH 548 0
DWIDTH 8 0
BBX 8 3 0 2
BITMAP
79ABBA40
FFFFFFD1
45322100
ENDCHAR
STARTCHAR approxequal
ENCODING 8776
SWIDTH 323 0
DWIDTH 5 0
BBX 4 11 0 -1
BITMAP
01D6
05FC
09FE
0CFB
1FF7
5FF3
6FF0
7FE0
3FF0
0DD0
0100
ENDCHAR
STARTCHAR fi
ENCODING 64257
SWIDTH 810 0
DWIDTH 11 0
BBX 12 10 -1 -1
BITMAP
000003573040
0049EFFFE6F3
05FFFA7549F7
01BF90000BF6
04AF75601FF1
3FFFFFF33FD0
0CFC96305FB0
0BF100003FB0
09D000000EA0
001000000210
ENDCHAR
STARTCHAR fl
ENCODING 64258
SWIDTH 1012 0
DWIDTH 14 0
BBX 15 10 -1 -1
BITMAP
0000035731400000
0049EFFFE8FA0000
05FFFA754BF70000
01BF90002FF20000
04AF75607FB00000
3FFFFFF3CF500000
0CFC9631FF134200
0BF10001FFFFFF90
09D00000AFFCBB90
0010000003100000
ENDCHAR
STARTCHAR .notdef
ENCODING -1
SWIDTH 370 0
DWIDTH 5 0
BBX 1 1 0 0
BITMAP
00
ENDCHAR
ENDFONT
